<mxfile host="65bd71144e">
    <diagram id="65ZwQ4qyi88YpZS3bZ8J" name="第 1 页">
        <mxGraphModel dx="1461" dy="1831" grid="1" gridSize="10" guides="1" tooltips="1" connect="1" arrows="1" fold="1" page="1" pageScale="1" pageWidth="827" pageHeight="1169" math="0" shadow="0">
            <root>
                <mxCell id="0"/>
                <mxCell id="1" parent="0"/>
                <mxCell id="4" value="Heap Start Obj" style="swimlane;childLayout=stackLayout;resizeParent=1;resizeParentMax=0;horizontal=1;startSize=20;horizontalStack=0;html=1;" parent="1" vertex="1">
                    <mxGeometry x="434" y="-110" width="220" height="380" as="geometry"/>
                </mxCell>
                <mxCell id="5" value="pool_ptr" style="swimlane;startSize=20;horizontal=0;html=1;" parent="4" vertex="1">
                    <mxGeometry y="20" width="220" height="120" as="geometry"/>
                </mxCell>
                <mxCell id="_hpAyYt7pyZwa7BVQrSi-38" value="Start Addr |&amp;nbsp; 1&lt;br&gt;USED" style="text;html=1;align=center;verticalAlign=middle;resizable=0;points=[];autosize=1;strokeColor=none;fillColor=none;" parent="5" vertex="1">
                    <mxGeometry x="60" y="33" width="100" height="40" as="geometry"/>
                </mxCell>
                <mxCell id="7" value="prev" style="swimlane;startSize=20;horizontal=0;html=1;" parent="4" vertex="1">
                    <mxGeometry y="140" width="220" height="120" as="geometry"/>
                </mxCell>
                <mxCell id="_hpAyYt7pyZwa7BVQrSi-26" value="next" style="swimlane;startSize=20;horizontal=0;html=1;" parent="4" vertex="1">
                    <mxGeometry y="260" width="220" height="120" as="geometry"/>
                </mxCell>
                <mxCell id="_hpAyYt7pyZwa7BVQrSi-27" value="Allocated Obj" style="swimlane;childLayout=stackLayout;resizeParent=1;resizeParentMax=0;horizontal=1;startSize=20;horizontalStack=0;html=1;" parent="1" vertex="1">
                    <mxGeometry x="709" y="-110" width="220" height="380" as="geometry"/>
                </mxCell>
                <mxCell id="_hpAyYt7pyZwa7BVQrSi-28" value="pool_ptr" style="swimlane;startSize=20;horizontal=0;html=1;" parent="_hpAyYt7pyZwa7BVQrSi-27" vertex="1">
                    <mxGeometry y="20" width="220" height="120" as="geometry"/>
                </mxCell>
                <mxCell id="8" value="Start Addr |&amp;nbsp; 1&lt;br&gt;UNUSED" style="text;html=1;align=center;verticalAlign=middle;resizable=0;points=[];autosize=1;strokeColor=none;fillColor=none;" parent="_hpAyYt7pyZwa7BVQrSi-28" vertex="1">
                    <mxGeometry x="71" y="33" width="100" height="40" as="geometry"/>
                </mxCell>
                <mxCell id="_hpAyYt7pyZwa7BVQrSi-30" value="prev" style="swimlane;startSize=20;horizontal=0;html=1;" parent="_hpAyYt7pyZwa7BVQrSi-27" vertex="1">
                    <mxGeometry y="140" width="220" height="120" as="geometry"/>
                </mxCell>
                <mxCell id="_hpAyYt7pyZwa7BVQrSi-31" value="next" style="swimlane;startSize=20;horizontal=0;html=1;" parent="_hpAyYt7pyZwa7BVQrSi-27" vertex="1">
                    <mxGeometry y="260" width="220" height="120" as="geometry"/>
                </mxCell>
                <mxCell id="_hpAyYt7pyZwa7BVQrSi-32" value="Heap End Obj" style="swimlane;childLayout=stackLayout;resizeParent=1;resizeParentMax=0;horizontal=1;startSize=20;horizontalStack=0;html=1;" parent="1" vertex="1">
                    <mxGeometry x="1012" y="-110" width="220" height="380" as="geometry"/>
                </mxCell>
                <mxCell id="_hpAyYt7pyZwa7BVQrSi-33" value="pool_ptr" style="swimlane;startSize=20;horizontal=0;html=1;" parent="_hpAyYt7pyZwa7BVQrSi-32" vertex="1">
                    <mxGeometry y="20" width="220" height="120" as="geometry"/>
                </mxCell>
                <mxCell id="10" value="Start Addr |&amp;nbsp; 0&lt;br&gt;USED" style="text;html=1;align=center;verticalAlign=middle;resizable=0;points=[];autosize=1;strokeColor=none;fillColor=none;" parent="_hpAyYt7pyZwa7BVQrSi-33" vertex="1">
                    <mxGeometry x="68" y="33" width="100" height="40" as="geometry"/>
                </mxCell>
                <mxCell id="_hpAyYt7pyZwa7BVQrSi-35" value="prev" style="swimlane;startSize=20;horizontal=0;html=1;" parent="_hpAyYt7pyZwa7BVQrSi-32" vertex="1">
                    <mxGeometry y="140" width="220" height="120" as="geometry"/>
                </mxCell>
                <mxCell id="_hpAyYt7pyZwa7BVQrSi-53" style="edgeStyle=orthogonalEdgeStyle;rounded=0;orthogonalLoop=1;jettySize=auto;html=1;exitX=0;exitY=0.5;exitDx=0;exitDy=0;entryX=0.5;entryY=0;entryDx=0;entryDy=0;strokeColor=#FF0000;" parent="_hpAyYt7pyZwa7BVQrSi-32" source="_hpAyYt7pyZwa7BVQrSi-36" target="_hpAyYt7pyZwa7BVQrSi-32" edge="1">
                    <mxGeometry relative="1" as="geometry">
                        <Array as="points">
                            <mxPoint x="-27" y="320"/>
                            <mxPoint x="-27" y="440"/>
                            <mxPoint x="240" y="440"/>
                            <mxPoint x="240" y="-20"/>
                            <mxPoint x="110" y="-20"/>
                        </Array>
                    </mxGeometry>
                </mxCell>
                <mxCell id="_hpAyYt7pyZwa7BVQrSi-36" value="next" style="swimlane;startSize=20;horizontal=0;html=1;" parent="_hpAyYt7pyZwa7BVQrSi-32" vertex="1">
                    <mxGeometry y="260" width="220" height="120" as="geometry"/>
                </mxCell>
                <mxCell id="_hpAyYt7pyZwa7BVQrSi-44" style="edgeStyle=orthogonalEdgeStyle;rounded=0;orthogonalLoop=1;jettySize=auto;html=1;exitX=0;exitY=0.5;exitDx=0;exitDy=0;entryX=0.5;entryY=0;entryDx=0;entryDy=0;strokeColor=#67AB9F;" parent="1" source="7" target="_hpAyYt7pyZwa7BVQrSi-32" edge="1">
                    <mxGeometry relative="1" as="geometry">
                        <Array as="points">
                            <mxPoint x="414" y="210"/>
                            <mxPoint x="414" y="-190"/>
                            <mxPoint x="1122" y="-190"/>
                        </Array>
                    </mxGeometry>
                </mxCell>
                <mxCell id="_hpAyYt7pyZwa7BVQrSi-45" style="edgeStyle=orthogonalEdgeStyle;rounded=0;orthogonalLoop=1;jettySize=auto;html=1;exitX=1;exitY=0.5;exitDx=0;exitDy=0;entryX=0.5;entryY=0;entryDx=0;entryDy=0;strokeColor=#67AB9F;" parent="1" source="_hpAyYt7pyZwa7BVQrSi-26" target="_hpAyYt7pyZwa7BVQrSi-27" edge="1">
                    <mxGeometry relative="1" as="geometry">
                        <Array as="points">
                            <mxPoint x="675" y="210"/>
                            <mxPoint x="675" y="-150"/>
                            <mxPoint x="819" y="-150"/>
                        </Array>
                    </mxGeometry>
                </mxCell>
                <mxCell id="_hpAyYt7pyZwa7BVQrSi-49" style="edgeStyle=orthogonalEdgeStyle;rounded=0;orthogonalLoop=1;jettySize=auto;html=1;exitX=0;exitY=0.5;exitDx=0;exitDy=0;entryX=0.5;entryY=0;entryDx=0;entryDy=0;strokeColor=#FF3333;" parent="1" source="_hpAyYt7pyZwa7BVQrSi-35" target="_hpAyYt7pyZwa7BVQrSi-27" edge="1">
                    <mxGeometry relative="1" as="geometry">
                        <Array as="points">
                            <mxPoint x="985" y="90"/>
                            <mxPoint x="985" y="-130"/>
                            <mxPoint x="819" y="-130"/>
                        </Array>
                    </mxGeometry>
                </mxCell>
                <mxCell id="_hpAyYt7pyZwa7BVQrSi-51" style="edgeStyle=orthogonalEdgeStyle;rounded=0;orthogonalLoop=1;jettySize=auto;html=1;exitX=0;exitY=0.5;exitDx=0;exitDy=0;entryX=0.5;entryY=0;entryDx=0;entryDy=0;" parent="1" source="_hpAyYt7pyZwa7BVQrSi-30" target="4" edge="1">
                    <mxGeometry relative="1" as="geometry">
                        <Array as="points">
                            <mxPoint x="695" y="210"/>
                            <mxPoint x="695" y="-170"/>
                            <mxPoint x="544" y="-170"/>
                        </Array>
                    </mxGeometry>
                </mxCell>
                <mxCell id="_hpAyYt7pyZwa7BVQrSi-52" style="edgeStyle=orthogonalEdgeStyle;rounded=0;orthogonalLoop=1;jettySize=auto;html=1;exitX=1;exitY=0.5;exitDx=0;exitDy=0;entryX=0.5;entryY=0;entryDx=0;entryDy=0;" parent="1" source="_hpAyYt7pyZwa7BVQrSi-31" target="_hpAyYt7pyZwa7BVQrSi-32" edge="1">
                    <mxGeometry relative="1" as="geometry">
                        <Array as="points">
                            <mxPoint x="955" y="210"/>
                            <mxPoint x="955" y="-150"/>
                            <mxPoint x="1122" y="-150"/>
                        </Array>
                    </mxGeometry>
                </mxCell>
                <mxCell id="11" value="Heap Start" style="swimlane;childLayout=stackLayout;resizeParent=1;resizeParentMax=0;horizontal=1;startSize=20;horizontalStack=0;html=1;" vertex="1" parent="1">
                    <mxGeometry x="140" y="-220" width="220" height="620" as="geometry"/>
                </mxCell>
                <mxCell id="12" value="parent" style="swimlane;startSize=20;horizontal=0;html=1;" vertex="1" parent="11">
                    <mxGeometry y="20" width="220" height="120" as="geometry"/>
                </mxCell>
                <mxCell id="17" value="rt_memory" style="text;html=1;align=center;verticalAlign=middle;resizable=0;points=[];autosize=1;strokeColor=none;fillColor=none;" vertex="1" parent="12">
                    <mxGeometry x="70" y="38" width="80" height="30" as="geometry"/>
                </mxCell>
                <mxCell id="14" value="heap_ptr" style="swimlane;startSize=20;horizontal=0;html=1;" vertex="1" parent="11">
                    <mxGeometry y="140" width="220" height="120" as="geometry"/>
                </mxCell>
                <mxCell id="15" value="heap_end" style="swimlane;startSize=20;horizontal=0;html=1;" vertex="1" parent="11">
                    <mxGeometry y="260" width="220" height="120" as="geometry"/>
                </mxCell>
                <mxCell id="18" value="lfree" style="swimlane;startSize=20;horizontal=0;html=1;" vertex="1" parent="11">
                    <mxGeometry y="380" width="220" height="120" as="geometry"/>
                </mxCell>
                <mxCell id="19" value="mem_size_aligned" style="swimlane;startSize=20;horizontal=0;html=1;" vertex="1" parent="11">
                    <mxGeometry y="500" width="220" height="120" as="geometry"/>
                </mxCell>
            </root>
        </mxGraphModel>
    </diagram>
</mxfile>